<svg xmlns="http://www.w3.org/2000/svg" fill="black" viewBox="204.255 0 60.965 60.44444444444444" style="max-height: 500px" width="60.965" height="60.44444444444444">
<g clip-path="url(#clip0_2435_837)">
<path fill="black" d="M36.526 31.6183C36.526 31.9474 36.2158 32.1072 35.6047 32.1072C35.332 32.1072 35.1628 31.985 35.0876 31.7499C34.3542 29.3431 33.3012 27.6413 31.9285 26.6447C30.5653 25.6481 28.5345 25.1498 25.855 25.1498H23.4481C22.6114 25.1498 22.0378 25.2909 21.7276 25.5635C21.4173 25.8362 21.2669 26.3439 21.2669 27.1054V53.1578C21.2669 54.3425 21.4173 55.1792 21.7182 55.6681C22.019 56.157 22.5455 56.5425 23.3071 56.8245C24.0686 57.0972 25.1592 57.3322 26.5789 57.5015C26.8516 57.5391 26.9926 57.7647 26.9926 58.1878C26.9926 58.6579 26.8516 58.9023 26.5789 58.9023C25.4319 58.9023 24.0592 58.8553 22.4703 58.7519C20.966 58.6485 19.7062 58.6109 18.6908 58.6109C17.6754 58.6109 16.3592 58.6579 14.8267 58.7519C13.2377 58.8459 11.8651 58.9023 10.7181 58.9023C10.4454 58.9023 10.3138 58.6579 10.3138 58.1878C10.3138 57.7647 10.4454 57.5391 10.7181 57.5015C12.7865 57.257 14.1967 56.881 14.9395 56.345C15.6822 55.8185 16.0583 54.7561 16.0583 53.1672V27.1148C16.0583 26.3533 15.8985 25.8456 15.5976 25.5729C15.2873 25.3003 14.7044 25.1592 13.8489 25.1592H11.8557C9.43942 25.1592 7.2582 25.7704 5.28382 26.9926C3.31884 28.2148 2.04019 29.7943 1.43848 31.7405C1.35386 31.9944 1.15642 32.126 0.874368 32.126C0.291456 32.126 0 31.9379 0 31.5619C0.958985 28.9858 1.86156 26.0712 2.71712 22.8088C5.03937 23.2977 10.3702 23.5421 18.6814 23.5421C26.9926 23.5421 32.6525 23.2977 34.9841 22.8088C35.2192 25.0276 35.7363 27.9704 36.526 31.6371"/>
<path fill="black" d="M108.562 50.4407C107.18 53.3835 106.042 56.1946 105.168 58.8741C98.7276 58.6673 94.149 58.5827 91.413 58.5827C88.6771 58.5827 84.136 58.6767 77.6676 58.8741C77.3949 58.8741 77.2539 58.6297 77.2539 58.1596C77.2539 57.7365 77.3949 57.5109 77.6676 57.4733C79.0873 57.304 80.1779 57.0784 80.9206 56.7963C81.6728 56.5143 82.1993 56.1288 82.5001 55.6493C82.801 55.1792 82.9514 54.3331 82.9514 53.139V28.9858C82.9514 27.8012 82.8104 26.9738 82.5283 26.4849C82.2463 26.0054 81.7292 25.6105 80.977 25.3191C80.2249 25.0276 79.1249 24.802 77.6676 24.6233C77.3949 24.6233 77.2539 24.3883 77.2539 23.9276C77.2539 23.4669 77.3949 23.2319 77.6676 23.2319C81.9736 23.4293 86.3831 23.5327 90.8865 23.5327C95.39 23.5327 99.8371 23.4293 104.115 23.2319C104.51 25.8832 105.074 28.4969 105.826 31.0824C105.826 31.4303 105.525 31.5995 104.914 31.5995C104.613 31.5995 104.435 31.4773 104.369 31.2328C103.109 27.1712 100.411 25.1404 96.2832 25.1404H91.1216C89.1378 25.1404 88.1506 26.1652 88.1506 28.2242V39.6662H94.6096C96.3302 39.6662 97.496 39.262 98.0977 38.4816C98.7088 37.6919 99.1319 36.291 99.3764 34.279C99.3764 34.0063 99.602 33.8653 100.072 33.8653C100.542 33.8653 100.768 33.9969 100.768 34.279C100.768 35.144 100.711 36.2158 100.617 37.5132C100.514 38.7637 100.476 39.7885 100.476 40.5782C100.476 41.368 100.523 42.4116 100.617 43.662C100.711 44.9971 100.768 46.0971 100.768 46.9526C100.768 47.2253 100.533 47.3663 100.072 47.3663C99.6114 47.3663 99.3764 47.2253 99.3764 46.9526C99.1131 44.856 98.6618 43.38 98.0225 42.5432C97.3738 41.697 96.2362 41.2739 94.6096 41.2739H88.1506V53.9288C88.1506 55.9502 89.1472 56.9656 91.131 56.9656H96.7063C98.7464 56.9656 100.758 56.3074 102.761 54.9724C104.754 53.6467 106.23 51.992 107.17 50.0082C107.236 49.8578 107.387 49.7732 107.603 49.7732C107.838 49.7732 108.054 49.839 108.242 49.9612C108.43 50.0928 108.534 50.2433 108.534 50.4407"/>
<path fill="black" d="M156.814 23.937C156.814 24.3601 156.682 24.5857 156.4 24.6233C154.256 24.8678 152.79 25.2533 151.99 25.808C151.191 26.3533 150.778 27.4063 150.749 28.9576L150.166 59.1656C150.166 59.5041 149.96 59.6733 149.555 59.6733C149.349 59.6733 149.076 59.5417 148.737 59.269L122.3 29.4183L121.933 53.1484C121.914 53.2801 121.905 53.4117 121.905 53.5339C121.905 54.8408 122.318 55.7527 123.136 56.298C123.964 56.8339 125.44 57.2288 127.583 57.4827C127.856 57.5203 127.997 57.7459 127.997 58.169C127.997 58.6391 127.865 58.8835 127.583 58.8835C126.7 58.8835 125.468 58.8365 123.917 58.7331C122.459 58.6297 121.341 58.5921 120.56 58.5921C119.705 58.5921 118.558 58.6391 117.1 58.7331C115.699 58.8271 114.609 58.8835 113.847 58.8835C113.565 58.8835 113.434 58.6391 113.434 58.169C113.434 57.7459 113.584 57.5203 113.894 57.4827C116.01 57.2288 117.467 56.8339 118.257 56.298C119.037 55.7527 119.46 54.7091 119.517 53.1484L120.4 28.9952V28.7695C120.4 27.3875 119.996 26.4097 119.187 25.8738C118.388 25.3285 116.884 24.9148 114.703 24.6421C114.458 24.6421 114.346 24.4071 114.346 23.9464C114.346 23.4857 114.477 23.2507 114.75 23.2507C115.352 23.2507 116.188 23.2977 117.27 23.4011C118.229 23.5045 118.952 23.5515 119.432 23.5515C120.024 23.5515 120.748 23.5045 121.594 23.4011C122.45 23.3071 123.193 23.2507 123.804 23.2507L148.502 50.8356V28.9858C148.502 27.5285 148.089 26.5037 147.252 25.9114C146.425 25.3191 144.892 24.896 142.645 24.6421C142.372 24.6045 142.231 24.3789 142.231 23.9558C142.231 23.4857 142.363 23.2413 142.645 23.2413C143.566 23.2413 144.807 23.2883 146.34 23.3917C147.778 23.4951 148.888 23.5421 149.678 23.5421C150.533 23.5421 151.699 23.4951 153.147 23.3917C154.548 23.2977 155.638 23.2413 156.409 23.2413C156.682 23.2413 156.823 23.4763 156.823 23.9558"/>
<path fill="black" d="M195.896 31.6183C195.896 31.9474 195.586 32.1072 194.975 32.1072C194.702 32.1072 194.533 31.985 194.467 31.7499C193.724 29.3431 192.68 27.6413 191.308 26.6447C189.935 25.6481 187.914 25.1498 185.234 25.1498H182.827C181.991 25.1498 181.417 25.2909 181.107 25.5635C180.797 25.8362 180.646 26.3439 180.646 27.1054V53.1578C180.646 54.3425 180.797 55.1792 181.097 55.6681C181.389 56.157 181.925 56.5425 182.686 56.8245C183.448 57.0972 184.539 57.3322 185.958 57.5015C186.231 57.5391 186.362 57.7647 186.362 58.1878C186.362 58.6579 186.231 58.9023 185.958 58.9023C184.811 58.9023 183.439 58.8553 181.85 58.7519C180.336 58.6485 179.076 58.6109 178.07 58.6109C177.064 58.6109 175.738 58.6579 174.206 58.7519C172.608 58.8459 171.244 58.9023 170.097 58.9023C169.825 58.9023 169.684 58.6579 169.684 58.1878C169.684 57.7647 169.825 57.5391 170.097 57.5015C172.166 57.257 173.576 56.881 174.319 56.345C175.061 55.8185 175.438 54.7561 175.438 53.1672V27.1148C175.438 26.3533 175.278 25.8456 174.977 25.5729C174.667 25.3003 174.093 25.1592 173.238 25.1592H171.235C168.819 25.1592 166.637 25.7704 164.672 26.9926C162.708 28.2148 161.419 29.7943 160.827 31.7405C160.743 31.9944 160.545 32.126 160.263 32.126C159.68 32.126 159.389 31.9379 159.389 31.5619C160.348 28.9858 161.25 26.0712 162.106 22.8088C164.428 23.2977 169.759 23.5421 178.07 23.5421C186.381 23.5421 192.041 23.2977 194.373 22.8088C194.608 25.0276 195.125 27.9704 195.905 31.6371"/>
<path fill="black" d="M99.0667 68.9623C95.4565 71.1529 92.4479 72.8076 85.5657 70.1563C82.1623 68.8307 79.5298 66.6588 76.1263 63.0109C74.9887 61.7981 73.7759 60.275 72.5818 58.6767C72.6006 58.6767 72.6101 58.6767 72.6289 58.6767C72.3656 58.3476 72.1024 58.0092 71.8391 57.6519C70.8331 56.2604 69.8647 54.8596 69.028 53.5903L65.4271 47.7612C65.333 47.6108 65.2296 47.4227 65.145 47.2817H65.1356L61.2903 41.0577C63.6595 40.2115 65.5399 39.0081 66.922 37.4474C68.3134 35.8867 69.0092 34.185 69.0092 32.3704C69.0092 29.4747 67.9656 27.2276 65.8784 25.6387C63.7818 24.0404 60.839 23.2413 57.0124 23.2413C55.8654 23.2413 54.4928 23.2883 52.9039 23.3917C51.3714 23.4951 50.0927 23.5421 49.0491 23.5421C48.0055 23.5421 46.7269 23.4951 45.2226 23.3917C43.6525 23.2977 42.2892 23.2413 41.1422 23.2413C40.8695 23.2413 40.7379 23.4763 40.7379 23.937C40.7379 24.3977 40.8695 24.6327 41.1422 24.6327C42.5995 24.802 43.6995 25.037 44.4516 25.3285C45.2038 25.6199 45.7209 26.0148 46.0029 26.4943C46.285 26.9832 46.426 27.82 46.426 28.9952V53.1484C46.426 54.3519 46.2756 55.1886 45.9747 55.6681C45.6739 56.1476 45.1474 56.5331 44.3952 56.8151C43.6431 57.0972 42.5619 57.3228 41.1328 57.4921C40.8601 57.5297 40.7285 57.7553 40.7285 58.1784C40.7285 58.6485 40.8601 58.8929 41.1328 58.8929C42.2798 58.8929 43.6431 58.8459 45.2132 58.7425C46.7081 58.6391 47.9867 58.6015 49.0209 58.6015C50.0551 58.6015 51.3338 58.6485 52.8569 58.7425C54.4458 58.8459 55.8184 58.8929 56.9654 58.8929C57.2381 58.8929 57.3791 58.6485 57.3791 58.1784C57.3791 57.7553 57.2287 57.5297 56.9372 57.4921C55.5176 57.3228 54.427 57.0972 53.6654 56.8151C52.9039 56.5331 52.3774 56.1476 52.0765 55.6681C51.7756 55.1792 51.6252 54.3519 51.6252 53.1672V42.1671C53.6748 42.1671 55.0287 42.4116 55.7056 42.9099C56.3825 43.4082 57.2757 44.527 58.3757 46.2663L61.7416 51.71L61.8732 51.9262L61.7698 51.945C62.7287 53.4681 63.6971 54.9724 64.6749 56.4673L65.5211 57.8399L66.1792 58.9023H66.1886C66.1886 58.9023 66.2732 58.9023 66.3108 58.9023C67.1382 60.1246 67.9562 61.3468 68.8211 62.5408C71.8579 66.6964 75.534 70.3255 80.5264 72.2529C89.082 75.5529 94.9864 72.9862 99.5932 69.8084L99.0761 68.9999L99.0667 68.9623ZM55.3859 40.6628C53.8722 40.6628 52.6124 40.597 51.6158 40.456V28.9858C51.6158 27.7259 51.738 26.8516 51.9919 26.3533C52.2363 25.855 52.7346 25.4883 53.4868 25.2627C54.2295 25.037 55.3295 24.9148 56.768 24.9148C61.1586 24.9148 63.3493 27.4251 63.3493 32.4456C63.3493 35.3226 62.7099 37.4098 61.4407 38.7072C60.1715 40.0141 58.1501 40.6722 55.3859 40.6722"/>
<path fill="black" d="M118.707 75.1487C118.707 78.3077 117.108 80 114.335 80C111.561 80 109.963 78.3077 109.963 75.1487V68.558H111.58V74.9418C111.58 77.1042 112.257 78.5897 114.335 78.5897C116.413 78.5897 117.089 77.1042 117.089 74.9418V68.558H118.707V75.1487Z"/>
<path fill="black" d="M128.184 68.5486H130.384L135.348 77.6119H135.376V68.5486H136.993V79.812H134.925L129.829 70.5512H129.801V79.812H128.184V68.5486Z"/>
<path fill="black" d="M148.719 68.5486H147.102V79.8026H148.719V68.5486Z"/>
<path fill="black" d="M163.356 79.812H161.344L157.104 68.5486H158.909L162.369 78.3923H162.406L165.969 68.5486H167.662L163.356 79.812Z"/>
<path fill="black" d="M176.369 68.5486H182.678V69.9683H177.986V73.2589H182.255V74.6786H177.986V78.3923H182.678V79.812H176.369V68.5486Z"/>
<path fill="black" d="M192.417 68.5486H195.172C197.4 68.5486 199.544 68.9059 199.544 71.5948C199.544 72.9674 198.528 73.9358 197.222 74.1615V74.1897C197.72 74.3871 197.964 74.6222 198.322 75.3179L200.446 79.8026H198.604L196.874 75.9008C196.375 74.8008 195.839 74.8008 194.984 74.8008H194.016V79.8026H192.398V68.5486H192.417ZM194.025 73.3905H195.398C196.93 73.3905 197.833 72.7136 197.833 71.6324C197.833 70.617 197.062 69.9683 195.576 69.9683H194.025V73.3905Z"/>
<path fill="black" d="M214.727 70.2503C213.909 69.9307 213.449 69.7802 212.612 69.7802C211.709 69.7802 210.647 70.0999 210.647 71.2751C210.647 73.4375 215.489 72.9392 215.489 76.6435C215.489 79.041 213.637 80 211.38 80C210.591 80 209.82 79.7743 209.077 79.5299L209.237 78.0256C209.782 78.2513 210.75 78.5709 211.578 78.5709C212.499 78.5709 213.787 78.0538 213.787 76.7376C213.787 74.2179 208.945 74.9136 208.945 71.4161C208.945 69.4136 210.525 68.3512 212.556 68.3512C213.298 68.3512 214.182 68.4828 214.962 68.7554L214.737 70.2409L214.727 70.2503Z"/>
<path fill="black" d="M226.555 68.5486H224.938V79.8026H226.555V68.5486Z"/>
<path fill="black" d="M238.355 69.9683H234.857V68.5486H243.469V69.9683H239.963V79.812H238.355V69.9683Z"/>
<path fill="black" d="M254.507 75.1017L250.107 68.5486H251.997L255.354 73.5974L258.625 68.5486H260.506L256.125 75.1017V79.812H254.507V75.1017Z"/>
<path fill="black" d="M237.387 42.6278V39.4688C241.646 40.4842 245.406 42.6372 249.844 43.4552C253.906 44.1979 257.723 42.9569 261.145 40.9637C259.876 44.3578 257.732 46.0877 255.203 48.6356C249.205 51.1365 243.178 48.0997 237.387 46.5954V42.6372V42.6278Z"/>
<path fill="black" d="M231.736 42.609V39.45C227.477 40.4654 223.716 42.6184 219.278 43.4364C215.217 44.1791 211.625 42.8911 208.203 40.8885C209.651 44.1885 211.381 46.0595 213.91 48.6074C219.908 51.1082 225.935 48.0621 231.726 46.5672V42.609H231.736Z"/>
<path fill="black" d="M231.811 56.5519V58.0374C226.49 57.6801 221.169 55.7903 217.145 52.2835C222.212 52.9604 227.045 50.7886 231.811 49.5005V56.5519Z"/>
<path fill="black" d="M237.386 55.0006V49.5005C242.294 50.798 247.258 52.9416 252.41 52.2835C248.161 55.7057 242.708 57.3134 237.377 58.0468V54.9912L237.386 55.0006Z"/>
<path fill="black" d="M263.589 29.202C263.589 29.202 263.589 29.1362 263.589 29.0986C263.486 21.4173 260.543 14.1967 255.24 8.72488C249.797 3.10259 242.529 0.00939941 234.763 0.00939941C226.997 0.00939941 220.021 3.02738 214.568 8.50864C209.106 13.9993 205.975 21.5113 205.9 29.1832C205.9 29.1832 205.89 29.1832 205.881 29.1644V29.108C205.881 29.249 205.881 29.3713 205.881 29.5029C205.881 29.5405 205.881 29.5687 205.881 29.6063C205.937 32.3704 206.407 34.3824 207.131 37.1371C210.422 39.8637 214.728 41.1047 219.006 40.597C223.566 40.0517 227.411 37.5132 231.82 36.5824H231.867C231.867 36.5824 231.867 29.0892 231.867 29.0798C233.043 28.5063 235.901 28.1866 237.386 29.061C237.386 29.061 237.386 36.432 237.386 36.3944C242.915 38.1525 248.208 41.4338 254.253 40.5218C257.093 40.0893 259.772 39.0739 262.075 37.3252C263.081 34.4388 263.57 32.3986 263.589 29.5217C263.589 29.4371 263.589 29.3524 263.589 29.2678C263.589 29.249 263.589 29.2302 263.589 29.2208M262.348 29.9918C259.114 32.1824 254.892 33.7995 251.132 33.2636C246.44 32.5961 242.162 30.9414 237.828 29.2678C236.794 28.873 236.775 26.8234 236.916 25.5729C236.963 25.1592 237.574 25.3755 237.932 25.4225C242.247 26.0148 246.271 27.3405 250.192 29.0892C251.367 28.0738 253.924 26.4097 253.924 26.4097C253.924 26.4097 251.969 24.2661 251.122 23.1473H237.198C237.621 22.0943 237.499 18.3523 237.132 15.9173C236.738 13.266 235.807 10.7933 236.38 8.13256C236.39 8.08555 236.409 8.01974 236.427 7.97273C236.954 7.32401 237.311 6.46844 237.311 5.67869C237.311 5.52826 237.292 5.38723 237.274 5.24621C237.264 5.13339 237.236 5.02997 237.208 4.91714C237.132 4.62569 237.02 4.34363 236.86 4.09919C236.756 3.89235 236.634 3.73252 236.362 3.54448C235.901 3.1308 235.299 2.87695 234.613 2.87695C233.926 2.87695 233.325 3.1308 232.845 3.52568C232.826 3.53508 232.817 3.55388 232.798 3.56328C232.676 3.6667 232.573 3.77952 232.469 3.89235C232.422 3.94876 232.375 3.99577 232.328 4.06158C232.262 4.165 232.206 4.26842 232.15 4.37184C232.112 4.44705 232.056 4.51287 232.018 4.58808C231.943 4.75731 231.905 4.91714 231.877 5.08638C231.839 5.27441 231.811 5.47185 231.811 5.66929C231.811 6.46844 232.15 7.33341 232.685 7.99154C232.704 8.04795 232.723 8.09496 232.732 8.15137C233.419 10.7933 232.939 11.9309 232.328 15.9173C231.952 18.3523 231.604 22.0848 232.103 23.1661H218.169L215.753 26.3909C215.753 26.3909 217.887 27.9986 218.818 29.0798C221.958 28.1772 224.779 26.6353 228.116 25.996C229.489 25.7328 232.027 25.1216 232.375 25.4037C232.657 25.6293 232.855 28.7225 231.416 29.3054C230.429 29.7097 229.188 30.1704 228.126 30.4525C223.697 31.6559 219.56 33.8747 214.935 33.4328C212.265 33.179 209.397 31.8063 207.112 30.1234V29.5781C207.065 22.0848 210.102 14.7232 215.442 9.3548C220.661 4.10859 227.524 1.22223 234.754 1.22223C241.984 1.22223 249.139 4.1838 254.347 9.57104C259.518 14.9113 262.367 21.9908 262.367 29.4935V29.973L262.348 29.9918Z"/>
<path fill="black" d="M285.741 23.2225H284.641V79.8684H285.741V23.2225Z"/>
<path fill="black" d="M306.801 30.9696H313.391C320.01 30.9696 325.294 35.0688 325.294 41.9415C325.294 49.4253 320.753 53.2989 313.391 53.2989H306.801V30.9696ZM309.997 50.4783H313.354C318.854 50.4783 321.891 47.827 321.891 42.0637C321.891 36.8457 318.337 33.7807 313.73 33.7807H309.988V50.4783H309.997Z"/>
<path fill="black" d="M347.772 44.0475C347.772 50.3185 344.604 53.6749 339.104 53.6749C333.604 53.6749 330.436 50.3185 330.436 44.0475V30.9602H333.632V43.6338C333.632 47.921 334.977 50.8638 339.104 50.8638C343.231 50.8638 344.576 47.921 344.576 43.6338V30.9602H347.772V44.0475Z"/>
<path fill="black" d="M353.621 30.9696H359.093C363.512 30.9696 367.761 31.6747 367.761 37.0149C367.761 39.732 365.749 41.65 363.155 42.1013V42.1671C364.151 42.5526 364.621 43.0321 365.326 44.4047L369.548 53.2989H365.9L362.478 45.5612C361.481 43.3894 360.428 43.3894 358.736 43.3894H356.818V53.3083H353.621V30.979V30.9696ZM356.827 40.5594H359.544C362.581 40.5594 364.377 39.2149 364.377 37.0713C364.377 35.0593 362.844 33.7807 359.901 33.7807H356.827V40.5594Z"/>
<path fill="black" d="M373.834 30.9696H377.031V40.315H387.72V30.9696H390.917V53.2989H387.72V43.1261H377.031V53.2989H373.834V30.9696Z"/>
<path fill="black" d="M404.156 30.9696H407.513L416.952 53.2989H413.464L411.189 47.6672H400.245L397.97 53.2989H394.613L404.147 30.9696H404.156ZM405.726 33.9687L401.279 45.0347H410.173L405.726 33.9687Z"/>
<path fill="black" d="M420.533 30.9696H425.808L432.812 49.5287L439.694 30.9696H444.968V53.2989H441.772V33.9781H441.706L434.316 53.2989H431.185L423.796 33.9781H423.73V53.2989H420.533V30.9696Z"/>
<path fill="black" d="M311.464 67.1101H309.95V66.546H312.103V69.7802C311.436 70.0717 310.797 70.1845 310.082 70.1845C308.032 70.1845 306.801 68.8307 306.801 66.8187C306.801 64.8067 308.07 63.4528 310.082 63.4528C310.58 63.4528 311.389 63.5374 311.831 63.7631L311.756 64.3648C311.248 64.0827 310.656 64.0169 310.082 64.0169C308.39 64.0169 307.44 65.211 307.44 66.8281C307.44 68.4452 308.361 69.6392 310.082 69.6392C310.486 69.6392 311.154 69.5922 311.464 69.4042V67.1195V67.1101Z"/>
<path fill="black" d="M314.039 63.5562H315.722C316.878 63.5562 317.63 64.0545 317.63 65.2486C317.63 66.0853 316.981 66.6494 316.182 66.7529V66.7717C316.709 66.8375 316.812 67.1195 317.019 67.552L318.128 70.0717H317.423L316.483 67.8717C316.107 67.0349 315.834 67.0067 315.214 67.0067H314.678V70.0811H314.029V63.5656L314.039 63.5562ZM314.678 66.4426H315.355C316.107 66.4426 316.981 66.1511 316.981 65.2486C316.981 64.1862 316.229 64.1204 315.336 64.1204H314.669V66.4426H314.678Z"/>
<path fill="black" d="M319.482 63.5562H322.67V64.1204H320.122V66.4426H322.538V67.0067H320.122V69.517H322.782V70.0811H319.482V63.5656V63.5562Z"/>
<path fill="black" d="M326.413 63.5562H327.137L329.722 70.0717H329.045L328.349 68.323H325.068L324.372 70.0717H323.752L326.422 63.5562H326.413ZM326.723 64.1768L325.303 67.7683H328.133L326.723 64.1768Z"/>
<path fill="black" d="M331.498 64.1204H329.58V63.5562H334.065V64.1204H332.147V70.0717H331.507V64.1204H331.498Z"/>
<path fill="black" d="M335.23 63.5562H338.418V64.1204H335.87V66.4426H338.286V67.0067H335.87V69.517H338.531V70.0811H335.23V63.5656V63.5562Z"/>
<path fill="black" d="M340.186 63.5562H341.868C343.025 63.5562 343.777 64.0545 343.777 65.2486C343.777 66.0853 343.128 66.6494 342.329 66.7529V66.7717C342.856 66.8375 342.959 67.1195 343.166 67.552L344.275 70.0717H343.57L342.63 67.8717C342.254 67.0349 341.981 67.0067 341.361 67.0067H340.834V70.0811H340.186V63.5656V63.5562ZM340.834 66.4426H341.511C342.273 66.4426 343.138 66.1511 343.138 65.2486C343.138 64.1862 342.386 64.1204 341.492 64.1204H340.834V66.4426Z"/>
<path fill="black" d="M347.876 61.0648H344.773V59.363H353.15V61.0648H350.048V70.1845H347.876V61.0648Z"/>
<path fill="black" d="M359.779 59.175C363.173 59.175 365.082 61.469 365.082 64.7409C365.082 68.0127 363.201 70.3725 359.779 70.3725C356.357 70.3725 354.477 68.0597 354.477 64.7409C354.477 61.422 356.338 59.175 359.779 59.175ZM359.779 68.6614C361.998 68.6614 362.816 66.6964 362.816 64.7409C362.816 62.7853 361.932 60.8767 359.779 60.8767C357.626 60.8767 356.742 62.8323 356.742 64.7409C356.742 66.6494 357.56 68.6614 359.779 68.6614Z"/>
<path fill="black" d="M367.357 59.363H369.698C372.021 59.363 374.804 59.2878 374.804 62.2964C374.804 63.5656 373.948 64.6187 372.575 64.8067V64.8349C373.168 64.8819 373.506 65.4742 373.722 65.9537L375.462 70.1845H373.046L371.739 66.7999C371.428 65.9913 371.146 65.6811 370.234 65.6811H369.539V70.1751H367.367V59.3536L367.357 59.363ZM369.52 63.9793H370.234C371.306 63.9793 372.528 63.8195 372.528 62.475C372.528 61.1306 371.316 61.0648 370.234 61.0648H369.52V63.9793Z"/>
<path fill="black" d="M382.26 59.175C385.654 59.175 387.562 61.469 387.562 64.7409C387.562 68.0127 385.691 70.3725 382.26 70.3725C378.828 70.3725 376.957 68.0597 376.957 64.7409C376.957 61.422 378.819 59.175 382.26 59.175ZM382.26 68.6614C384.478 68.6614 385.296 66.6964 385.296 64.7409C385.296 62.7853 384.413 60.8767 382.26 60.8767C380.107 60.8767 379.223 62.8323 379.223 64.7409C379.223 66.6494 380.041 68.6614 382.26 68.6614Z"/>
<path fill="black" d="M389.912 59.363H392.582L396.71 67.458H396.738V59.363H398.816V70.1845H396.164L392.028 62.0896H391.999V70.1845H389.922V59.363H389.912Z"/>
<path fill="black" d="M403.657 61.0648H400.555V59.363H408.932V61.0648H405.829V70.1845H403.657V61.0648Z"/>
<path fill="black" d="M415.56 59.175C418.955 59.175 420.863 61.469 420.863 64.7409C420.863 68.0127 418.983 70.3725 415.56 70.3725C412.138 70.3725 410.258 68.0597 410.258 64.7409C410.258 61.422 412.119 59.175 415.56 59.175ZM415.56 68.6614C417.779 68.6614 418.597 66.6964 418.597 64.7409C418.597 62.7853 417.713 60.8767 415.56 60.8767C413.407 60.8767 412.524 62.8323 412.524 64.7409C412.524 66.6494 413.342 68.6614 415.56 68.6614Z"/>
<path fill="black" d="M424.735 63.6691H425.459L428.045 70.1845H427.377L426.681 68.4358H423.4L422.705 70.1845H422.084L424.754 63.6691H424.735ZM425.055 64.2896L423.635 67.8811H426.465L425.055 64.2896Z"/>
<path fill="black" d="M429.267 63.6691H430.95C432.107 63.6691 432.859 64.1674 432.859 65.3614C432.859 66.1982 432.219 66.7623 431.411 66.8657V66.8845C431.937 66.9503 432.041 67.2324 432.248 67.6648L433.357 70.1845H432.642L431.702 67.9845C431.326 67.1477 431.044 67.1195 430.433 67.1195H429.897V70.1845H429.258V63.6691H429.267ZM429.916 66.5554H430.602C431.354 66.5554 432.229 66.264 432.229 65.3614C432.229 64.299 431.477 64.2332 430.583 64.2332H429.916V66.5554Z"/>
<path fill="black" d="M434.73 63.6691H437.918V64.2332H435.37V66.5554H437.786V67.1195H435.37V69.6298H438.03V70.1939H434.73V63.6785V63.6691Z"/>
<path fill="black" d="M441.659 63.6691H442.383L444.968 70.1845H444.301L443.605 68.4358H440.324L439.628 70.1845H438.998L441.668 63.6691H441.659ZM441.978 64.2896L440.559 67.8811H443.389L441.978 64.2896Z"/>
</g>
<defs>
<clipPath id="clip0_2435_837">
<rect fill="black" height="80" width="444.978"/>
</clipPath>
</defs>
</svg>